<?xml version="1.0" encoding="utf-8"?>
<!-- Generator: Adobe Illustrator 20.1.0, SVG Export Plug-In . SVG Version: 6.00 Build 0)  -->
<svg version="1.1" id="Calque_1" xmlns="http://www.w3.org/2000/svg" xmlns:xlink="http://www.w3.org/1999/xlink" x="0px" y="0px"
	 viewBox="0 0 595.3 841.9" style="enable-background:new 0 0 595.3 841.9;" xml:space="preserve">
<style type="text/css">
	.st0{fill:#FEFEFE;}
	.st1{fill:#090A0A;}
	.st2{fill:#4B368B;}
	.st3{fill:#4A348B;}
	.st4{fill:#5D507D;}
	.st5{fill:#FCFBFC;}
</style>
<g>
	<g>
		<path class="st0" d="M50.5,121.8c0-9.1,0-18.1,0-27.2c109.2,0,218.4,0,327.7,0c-0.7,0.7-1.7,0.5-2.5,0.6
			c-3.8,0.5-7.5,1.3-11.1,2.4c-5.4,1.6-10.6,3.8-15.5,6.7c-2.8,1.6-5.5,3.4-8.1,5.4c-4.1,3.2-7.9,6.8-11.3,10.8
			c-3.5,4.2-6.5,8.7-9.1,13.5c-2.8,5.4-4.9,11.1-6.3,17.1c-1,4.5-1.8,9.2-1.8,13.8c0,3.2-0.1,6.5,0.3,9.7c0.3,3,0.8,5.9,1.4,8.8
			c0.7,3.3,1.7,6.6,2.8,9.7c1.7,4.5,3.8,8.9,6.4,13c3.9,6.2,8.5,11.7,14,16.5c4.3,3.7,8.8,6.9,13.8,9.5c6.1,3.2,12.6,5.6,19.4,7
			c4.2,0.9,8.4,1.4,12.7,1.5c2.4,0.1,4.7,0,7.1-0.2c2.9-0.2,5.7-0.6,8.6-1.1c5.5-1,10.8-2.6,15.9-4.9c10-4.5,18.7-10.8,25.8-19.1
			c4-4.7,7.4-9.7,10.2-15.2c2.2-4.3,3.8-8.8,5.1-13.5c1.2-4.5,2.1-9.1,2.3-13.7c0.2-4.3,0.3-8.6-0.2-12.9c-0.3-2.3-0.6-4.5-1.1-6.8
			c-1.1-6-3.1-11.8-5.7-17.3c-2.8-6-6.4-11.5-10.8-16.4c-3.6-4-7.5-7.8-11.9-10.9c-5.5-4-11.4-7.2-17.8-9.5
			c-6.1-2.2-12.3-3.8-18.8-4.2c-0.2,0-0.3-0.1-0.3-0.3c35.1,0,70.3,0,105.4,0c0,20.9,0,41.9,0,62.8c-5.1-0.2-10.3-0.5-15.3-0.2
			c-0.5,0.6-0.4,1.1-0.4,1.6c0.1,1.7-0.2,3.5-0.5,5.2c-0.5,3.3-0.9,6.6-1.6,9.8c-0.8,3.9-1.7,7.8-2.8,11.6c-1.6,5.6-3.6,11.1-6,16.4
			c-2.1,4.7-4.6,9.2-7.4,13.6c-2.4,3.7-5,7.3-7.9,10.6c-1.8,2-3.6,4.1-5.5,6c-2.8,2.8-5.8,5.4-9,7.8c-4.4,3.4-9,6.4-13.8,9
			c-4.6,2.5-9.3,4.6-14.2,6.5c-7.4,2.8-15.1,4.9-22.9,6.4c-4.2,0.8-8.5,1.4-12.8,1.7c-2.8,0.2-5.5,0.5-8.3,0.5
			c-3.9-0.1-7.9,0-11.8-0.4c-2.8-0.3-5.6-0.6-8.4-1.1c-2.1-0.4-4.3-0.7-6.4-1.2c-1.2-0.3-2.6-0.8-4-0.4c-0.3-1.1-1.3-0.8-2-1
			c-5.7-1.6-11.3-3.7-16.7-6.2c-3-1.4-5.9-3.1-8.7-4.8c-4.9-3-9.5-6.5-13.8-10.4c-4.7-4.3-9.1-9.1-12.9-14.2
			c-3.3-4.5-6.3-9.2-9-14.1c-2.4-4.5-4.6-9.1-6.4-13.8c-0.7-1.9-1.5-3.8-2.1-5.9c1.9-0.8,3.7-1.6,5.4-2.6c6-3.6,10.6-8.4,13.8-14.6
			c2.3-4.3,3.4-9,3.8-13.8c0.3-3.3-0.1-6.6-0.8-9.8c-0.8-3.6-2.1-7-4-10.2c-1.4-2.3-2.9-4.5-4.8-6.5c-2.4-2.5-5.1-4.6-8.1-6.4
			c-4.2-2.5-8.6-3.9-13.4-4.6c-3.3-0.5-6.7-0.3-10.1-0.3c-0.4,0-0.9-0.2-1.3,0.1c-0.3,3.3-0.2,14.2,0.2,15.5c2.4,0,4.8,0,7.1,0
			c1.3,0,2.6,0.1,3.9,0.4c4.7,1.1,8.6,3.6,11.5,7.4c3.7,4.9,5,10.5,3.6,16.4c-1.3,6.1-5,10.5-10.4,13.5c-3.1,1.7-6.4,2.4-9.9,2.4
			c-2.1,0-4.3,0-6.5,0c0.3,1.5,0.5,2.7,0.8,4c1.5,5.6,3,11.2,5.1,16.7c2.5,6.5,5.1,12.8,8.4,18.9c2.4,4.6,5.1,9,8.1,13.2
			c3.4,4.9,7.2,9.5,11.3,13.8c4.2,4.4,8.7,8.5,13.5,12.2c4.2,3.2,8.6,6.1,13.3,8.7c7.5,4.1,15.3,7.4,23.5,9.7
			c7.7,2.2,15.5,3.7,23.4,4.4c0.9,0.1,1.8,0.2,2.7,0.4c0.1,0,0.1,0.2,0.1,0.3c-102.2,0-204.5,0-306.7,0c0-17.4,0-34.9,0-52.3
			c6,0,12.1,0,18.1,0c0-35.2,0-70.2,0-105.4C62.6,121.8,56.6,121.8,50.5,121.8z M158.4,121.8c0,0.5-0.1,1-0.1,1.6
			c0,34.1,0,68.1,0,102.2c0,0.5,0,0.9,0,1.4c0,0.2,0.2,0.2,0.4,0.3c5.8,0,11.6,0,17.4,0c0.7-0.2,0.4-0.8,0.4-1.2
			c0-6.6,0-13.1,0-19.7c0-27.7,0-55.3,0-83c0-0.6,0.2-1.3-0.2-1.9c-5.7,0-11.4,0-17.1,0C158.9,121.4,158.5,121.2,158.4,121.8z
			 M98,227.2c0.2,0,0.4-0.1,0.4-0.3c0-0.5,0-0.9,0-1.4c0-34.1,0-68.2,0-102.3c0-0.4,0-0.8,0-1.2c0-0.2-0.2-0.2-0.4-0.2
			c-6,0-12.1,0-18.2,0c0,0.6,0,1.1,0,1.6c0,34.5,0,69,0,103.4c0,0,0,0.1,0.1,0.1c0,0,0.1,0.1,0.1,0.1C86,227.2,92,227.2,98,227.2z
			 M148.9,165.8c0.1-1.8-0.5-3.5-0.9-5.2c-0.8-4-2.5-7.5-4.7-10.9c-2.9-4.6-6.1-8.9-10.1-12.7c-1.3-1.3-2.8-2.4-4.2-3.6
			c-3.4-3-7.2-5.5-11.3-7.5c-2.8-1.3-5.6-2.5-8.6-3.2c-2.3-0.5-4.6-1.1-6.9-1c-0.6,0.1-0.4,0.5-0.4,0.8c0,2.9,0,5.8,0,8.7
			c0,2.6,0,5.2,0,7.8c0,0.3-0.2,0.7,0.4,0.8c2.1,0,4.2,0.3,6.3,0.9c3.6,1.1,6.7,3,9.4,5.5c2,1.8,3.9,3.8,5.5,5.9
			c2.4,3.1,4.5,6.4,5.9,10.1c1.4,3.7,2.2,7.6,2.2,11.6c0,1.3-0.2,2.6-0.8,3.7c-0.8,0.8-1.7,0.8-2.5,0.8c-8.5,0-17,0-25.5,0
			c-0.5,0-1-0.2-1.4,0.2c0,5.3,0,10.5,0,15.7c0.3,0.3,0.6,0.2,0.9,0.2c5.2,0,10.5,0,15.7,0c3.4,0,6.7,0,10.1,0
			c0.8,0,1.6,0.2,2.4,0.5c0.7,0.3,1.2,0.8,1.2,1.7c0,0.3,0,0.7,0,1c0,9.3,0,18.6,0,27.9c0,0.6-0.1,1.2,0.1,1.7
			c0.2,0.6,0.7,0.3,1,0.3c5.2,0,10.3,0,15.5,0c0.4,0,0.8,0.2,1.2-0.2c0-0.3,0-0.6,0-1c0-6.2,0-12.3,0-18.5c0-2.7-0.1-5.5,0.1-8.2
			c0.2-2.3,0.2-4.6,0.2-6.9c0-0.7,0.1-1.5,0.1-2.2c0-5.3,0.1-10.6-0.1-15.9c0.3-2.8-0.4-5.7-0.4-8.5
			C149.2,165.9,149,165.8,148.9,165.8z M179.4,193c2.7,0,5.3,0,7.9,0c2.3,0,4.5-0.2,6.7-0.7c7.6-1.8,14.1-5.4,19.2-11.3
			c2.7-3.1,4.8-6.4,6.3-10.2c1.7-4.1,2.5-8.4,2.6-12.9c0-1.6,0-3.2-0.3-4.8c-0.3-1.8-0.6-3.5-1-5.2c-1.3-4.9-3.6-9.2-6.8-13.2
			c-3.3-4.1-7.3-7.4-12.1-9.6c-5-2.4-10.4-3.6-16-3.6c-1.8,0-3.6,0-5.4,0c-0.4,0-0.9-0.2-1.3,0.2c-0.2,6.6-0.1,14.5,0.2,15.8
			c2.6,0,5.1,0,7.7,0c1.6,0,3.1,0.3,4.6,0.7c4.6,1.3,8.2,4,11,7.9c1.7,2.4,2.7,5,3.1,7.9c0.5,3.2,0.3,6.3-0.7,9.4
			c-1.6,5-4.9,8.9-9.5,11.4c-2.6,1.4-5.4,2.3-8.4,2.2c-2.2-0.1-4.4,0-6.6,0c-0.5,0-0.9-0.1-1.3,0.4
			C179.4,182.4,179.4,187.6,179.4,193z M226.2,121.5c-0.7,0.7-0.4,1.4-0.4,2.1c0,33.8,0,67.6,0,101.3c0,0.5,0,0.9,0,1.4
			c0,0.3,0.2,0.5,0.5,0.8c5.6,0,11.4,0,17.1,0c0.3,0,0.5-0.2,0.7-0.4c0-35.1,0-70.1,0-105.2C238.1,121.5,232.2,121.5,226.2,121.5z"
			/>
		<path class="st1" d="M391.8,94.5c0,0.2,0.2,0.3,0.3,0.3c6.5,0.4,12.7,2,18.8,4.2c6.4,2.3,12.3,5.6,17.8,9.5
			c4.4,3.2,8.3,6.9,11.9,10.9c4.4,5,8,10.5,10.8,16.4c2.6,5.5,4.6,11.3,5.7,17.3c0.4,2.3,0.8,4.5,1.1,6.8c0.5,4.3,0.4,8.6,0.2,12.9
			c-0.2,4.6-1.1,9.2-2.3,13.7c-1.3,4.7-2.9,9.2-5.1,13.5c-2.8,5.5-6.1,10.6-10.2,15.2c-7.2,8.3-15.8,14.7-25.8,19.1
			c-5.1,2.3-10.4,3.9-15.9,4.9c-2.8,0.5-5.7,0.9-8.6,1.1c-2.4,0.2-4.7,0.3-7.1,0.2c-4.3-0.2-8.5-0.7-12.7-1.5
			c-6.8-1.4-13.3-3.7-19.4-7c-5-2.6-9.6-5.8-13.8-9.5c-5.5-4.8-10.1-10.3-14-16.5c-2.6-4.1-4.7-8.4-6.4-13c-1.2-3.2-2.2-6.4-2.8-9.7
			c-0.6-2.9-1.1-5.9-1.4-8.8c-0.4-3.2-0.3-6.5-0.3-9.7c0-4.7,0.8-9.3,1.8-13.8c1.3-6,3.4-11.7,6.3-17.1c2.5-4.8,5.5-9.3,9.1-13.5
			c3.4-4,7.1-7.6,11.3-10.8c2.6-2,5.2-3.8,8.1-5.4c4.9-2.8,10.1-5.1,15.5-6.7c3.6-1.1,7.3-1.9,11.1-2.4c0.8-0.1,1.8,0,2.5-0.6
			C382.7,94.5,387.3,94.5,391.8,94.5z M437.4,181.4c1.9-6.3,2.5-12.8,1.8-19.3c-0.8-7.1-2.7-13.8-6.2-20c-6.1-1.9-14.4-2.4-16.1-1.5
			c6.8,8.3,10.3,17.7,9.8,28.5C431.1,172.6,434.4,176.8,437.4,181.4z M354.3,194.5c-3.4-4-6-8.4-7.7-13.3
			c-1.7-4.9-2.5-10.1-2.2-15.2c-4.3-3.5-7.8-7.7-10.7-12.5c-0.2,0.4-0.4,0.7-0.5,1c-0.6,2.8-1.3,5.6-1.4,8.5
			c-0.3,5.2-0.2,10.4,0.9,15.5c1,4.6,2.5,8.9,4.5,13.2c0.3,0.6,0.6,1.1,1.1,1.5C348,195.2,350.1,195.4,354.3,194.5z M371.3,219.6
			c14,3.6,27.1,2,39.6-4.5c1.6-5.3,2.1-10.7,1.7-16.4c-8.4,7.1-18,10.3-28.8,10.2C380.4,213.3,376.1,216.6,371.3,219.6z
			 M358.4,136.4c8.5-7,18-10.4,28.8-10.1c3.4-4.4,7.7-7.7,12.6-10.7c-14-3.5-27.1-2.1-39.6,4.4C358.6,125.3,358,130.6,358.4,136.4z
			 M402.6,115.3c14.4,5,24.6,14.3,31.1,25.9c1.4,0.5,2.8,0.9,4.3,1.5c1.5,0.6,3,1.2,4.4,1.9c1.4,0.6,2.7,1.3,4.4,2.1
			c-5.9-16.4-16.3-28.3-31.1-36.4C413.3,110.5,405.5,113.5,402.6,115.3z M359.3,119.3c1.3-4.4,3.1-8.7,5.5-13.2
			c-16.4,6-28.5,16.4-36.5,31.3c0.9,4.3,3.8,11.5,5.2,12.9C338.1,136.8,346.7,126.5,359.3,119.3z M411.8,215.9
			c-1.3,4.5-3.2,8.8-5.5,13.2c16.3-5.9,28.3-16.3,36.5-31.1c-0.3-3-3.4-11-5.1-13.1C433,198.4,424.4,208.7,411.8,215.9z
			 M368.6,219.9c-6.7-2.4-12.8-5.6-18.1-10.1c-5.4-4.5-9.8-10-13.1-15.9c-1.7-0.6-3.1-1.1-4.5-1.6c-1.4-0.6-2.9-1.2-4.3-1.8
			c-1.3-0.5-2.5-1.4-4.2-1.9c5.9,16.3,16.4,28.2,31.2,36.4C360,223.7,364.3,222.2,368.6,219.9z M356.6,195.5
			c7.1,8,18.4,12.2,26.9,12.3c4.1-5.2,6.3-11.2,6.9-17.9c-2.8,0.6-5.6,0.6-8.3,0.2c-2.8-0.4-5.4-1.4-7.9-2.8
			C369,191.7,363.2,194.4,356.6,195.5z M387.7,127.3c-4.1,5.4-6.4,11.2-6.9,18c2.9-0.4,5.6-0.7,8.4-0.2c2.7,0.5,5.3,1.4,7.8,2.8
			c2.5-2.1,5.2-3.9,8.2-5.3c2.9-1.4,6-2.3,9.4-2.9C407.1,132.1,398.2,128,387.7,127.3z M407.8,162.8c1,5.8,0.3,11.2-2.6,16.1
			c0.3,0.5,0.5,0.8,0.8,1.1c3.4,4.1,5.6,8.7,6.8,13.8c0.2,0.8,0,1.8,0.8,2.6c7.4-7.4,11.5-16.3,12.1-26.7
			C420.5,165.7,414.6,163.4,407.8,162.8z M365.9,156.1c-2.1-2.5-3.9-5.2-5.3-8.1c-1.4-2.9-2.3-6-2.9-9.3
			c-7.5,6.3-12.6,18.8-12.2,26.9c5.5,4.5,14.6,7,17.7,6.5c-0.5-2.7-0.6-5.5-0.1-8.3C363.6,161.1,364.6,158.6,365.9,156.1z
			 M448.7,149c4.5,16.9,3.1,33.1-4.7,48.8c0.3,1.4,0.7,2.9,1,4.4c0.3,1.5,0.3,3,0.9,4.5c10.6-16,13.6-35.9,10.2-52.5
			C453.9,152.3,451.4,150.6,448.7,149z M355.3,226.1c-2.9,0.9-5.8,1.4-9,1.9c0.3,0.2,0.5,0.4,0.7,0.5c2.3,1.4,4.6,2.8,7.1,4
			c3.7,1.8,7.5,3.3,11.4,4.4c5.7,1.6,11.5,2.6,17.5,2.8c5,0.2,9.9-0.2,14.8-1c0.8-0.1,1.4-0.5,1.9-1.1c1.3-1.9,2.7-3.9,4-5.9
			c0.2-0.2,0.6-0.5,0.3-0.9C387.1,235.4,371,233.9,355.3,226.1z M325.1,128.7c-4.4,6.3-7.4,13.2-9.3,20.5
			c-2.7,10.5-3.1,21.1-1.1,31.7c2.4,1.8,4.8,3.6,7.6,5.1c-4.6-17-3-33.2,4.7-48.7C326.3,134.5,325.7,131.6,325.1,128.7z
			 M424.5,107.2c-16.1-10.3-33.5-13.6-52.2-10.5c-2,2.4-3.6,4.9-5.3,7.8c8.4-2.4,16.6-3.1,25-2.3c8.4,0.8,16.3,3.2,23.8,6.9
			C418.7,108.4,421.5,107.6,424.5,107.2z M364.7,173.5c1.2,5.1,5.6,10.8,9.6,12.5c4.8-4.8,9.2-9.9,10.6-17.2
			C378.6,172.9,371.7,173.6,364.7,173.5z M379.6,146.9c-4.1,0.2-11.3,5.9-12.2,9.3c4.1,4.9,12.3,10.5,16.9,10.4
			C380.3,160.6,379.7,153.8,379.6,146.9z M387.1,168.5c3.8,6.1,4.4,12.9,4.4,19.8c4-0.4,10.3-5,12.4-9.3
			C399.2,174.2,394.1,169.9,387.1,168.5z M386.2,166.5c6.2-4.2,13.1-4.7,20.2-4.9c-1.6-5.3-4.7-9.4-9.4-12.5
			C392.1,154.1,387.7,159.2,386.2,166.5z"/>
		<path class="st2" d="M357.3,279.5c0-0.1-0.1-0.3-0.1-0.3c-0.9-0.1-1.8-0.3-2.7-0.4c-8-0.7-15.7-2.2-23.4-4.4
			c-8.2-2.3-16.1-5.7-23.5-9.7c-4.6-2.5-9.1-5.4-13.3-8.7c-4.8-3.7-9.4-7.8-13.5-12.2c-4.1-4.3-7.9-8.9-11.3-13.8
			c-3-4.2-5.6-8.7-8.1-13.2c-3.3-6.1-6-12.5-8.4-18.9c-2.1-5.5-3.6-11.1-5.1-16.7c-0.3-1.2-0.5-2.5-0.8-4c2.3,0,4.4,0,6.5,0
			c3.5,0,6.8-0.7,9.9-2.4c5.4-3,9-7.4,10.4-13.5c1.3-6,0.1-11.6-3.6-16.4c-2.9-3.8-6.8-6.3-11.5-7.4c-1.3-0.3-2.6-0.4-3.9-0.4
			c-2.4,0-4.8,0-7.1,0c-0.3-1.2-0.4-12.1-0.2-15.5c0.4-0.3,0.9-0.1,1.3-0.1c3.4,0,6.7-0.2,10.1,0.3c4.7,0.7,9.2,2.2,13.4,4.6
			c3,1.8,5.7,3.9,8.1,6.4c1.9,2,3.4,4.2,4.8,6.5c1.9,3.2,3.2,6.6,4,10.2c0.7,3.2,1.1,6.5,0.8,9.8c-0.5,4.8-1.5,9.5-3.8,13.8
			c-3.2,6.1-7.8,11-13.8,14.6c-1.7,1-3.6,1.8-5.4,2.6c0.5,2.1,1.3,4,2.1,5.9c1.8,4.8,4,9.4,6.4,13.8c2.6,4.9,5.6,9.6,9,14.1
			c3.8,5.2,8.2,9.9,12.9,14.2c4.2,3.9,8.9,7.3,13.8,10.4c2.8,1.7,5.7,3.4,8.7,4.8c5.4,2.5,10.9,4.6,16.7,6.2c0.7,0.2,1.7,0,2,1
			c1.4-0.3,2.8,0.1,4,0.4c2.1,0.6,4.3,0.8,6.4,1.2c2.8,0.5,5.6,0.8,8.4,1.1c3.9,0.4,7.9,0.3,11.8,0.4c2.8,0,5.6-0.2,8.3-0.5
			c4.3-0.4,8.6-0.9,12.8-1.7c7.8-1.5,15.4-3.5,22.9-6.4c4.9-1.9,9.6-4,14.2-6.5c4.9-2.6,9.5-5.6,13.8-9c3.1-2.4,6.2-5,9-7.8
			c1.9-1.9,3.7-3.9,5.5-6c2.9-3.4,5.5-6.9,7.9-10.6c2.8-4.3,5.3-8.9,7.4-13.6c2.4-5.3,4.4-10.8,6-16.4c1.1-3.8,2-7.7,2.8-11.6
			c0.7-3.2,1.1-6.5,1.6-9.8c0.3-1.7,0.6-3.4,0.5-5.2c0-0.5-0.2-1.1,0.4-1.6c5-0.2,10.2,0.1,15.3,0.2c0,2.1,0,4.2,0,6.3
			c-0.2,0-0.3,0.1-0.4,0.3c-0.2,2.6-0.6,5.1-1,7.7c-0.4,2.9-0.9,5.8-1.6,8.6c-0.8,3.3-1.6,6.6-2.6,9.9c-1.7,6-3.9,11.8-6.4,17.5
			c-2.6,5.8-5.7,11.4-9.1,16.7c-1.7,2.6-3.4,5-5.3,7.4c-2.2,2.8-4.4,5.5-6.8,8c-3.8,4.1-7.9,7.8-12.3,11.3c-2.4,1.8-4.7,3.7-7.2,5.3
			c-3.1,2-6.3,3.9-9.6,5.8c-4.4,2.4-8.9,4.5-13.5,6.4c-4.5,1.9-9.2,3.4-13.9,4.8c-5.3,1.5-10.6,2.8-16,3.7
			c-4.2,0.7-8.4,1.4-12.6,1.7c-1,0.1-1.9,0.3-2.9,0.3c-0.2,0-0.3,0.2-0.3,0.4C369.6,279.5,363.4,279.5,357.3,279.5z"/>
		<path class="st0" d="M375.8,279.5c0-0.2,0.1-0.4,0.3-0.4c1,0,1.9-0.2,2.9-0.3c4.2-0.3,8.4-1,12.6-1.7c5.4-0.9,10.7-2.2,16-3.7
			c4.7-1.4,9.4-2.9,13.9-4.8c4.6-1.9,9.1-4,13.5-6.4c3.3-1.8,6.5-3.7,9.6-5.8c2.5-1.6,4.9-3.5,7.2-5.3c4.4-3.4,8.5-7.2,12.3-11.3
			c2.4-2.6,4.6-5.3,6.8-8c1.9-2.4,3.7-4.9,5.3-7.4c3.5-5.3,6.6-10.9,9.1-16.7c2.5-5.7,4.6-11.5,6.4-17.5c1-3.3,1.8-6.6,2.6-9.9
			c0.6-2.8,1.2-5.7,1.6-8.6c0.4-2.6,0.8-5.1,1-7.7c0-0.2,0.2-0.3,0.4-0.3c0,38.6,0,77.2,0,115.9
			C456.7,279.5,416.2,279.5,375.8,279.5z"/>
		<path class="st3" d="M50.5,121.8c6,0,12.1,0,18.1,0c0,35.2,0,70.2,0,105.4c-6.1,0-12.1,0-18.1,0C50.5,192,50.5,156.9,50.5,121.8z"
			/>
		<path class="st2" d="M131.6,227.1c-0.2-0.6-0.1-1.2-0.1-1.7c0-9.3,0-18.6,0-27.9c0-0.3,0-0.7,0-1c0-0.9-0.5-1.4-1.2-1.7
			c-0.7-0.3-1.5-0.5-2.4-0.5c-3.4,0-6.7,0-10.1,0c-5.2,0-10.5,0-15.7,0c-0.3,0-0.6,0.1-0.9-0.2c0-5.2,0-10.4,0-15.7
			c0.4-0.4,0.9-0.2,1.4-0.2c8.5,0,17,0,25.5,0c0.9,0,1.7,0,2.5-0.8c0.6-1.1,0.8-2.4,0.8-3.7c0.1-4-0.8-7.8-2.2-11.6
			c-1.4-3.7-3.4-7-5.9-10.1c-1.7-2.1-3.5-4.1-5.5-5.9c-2.7-2.5-5.8-4.5-9.4-5.5c-2-0.6-4.1-0.9-6.3-0.9c0-6,0-12.1,0-18.1
			c2.4-0.1,4.7,0.5,6.9,1c3,0.7,5.9,1.8,8.6,3.2c4.1,2,7.8,4.5,11.3,7.5c1.4,1.2,2.9,2.3,4.2,3.6c4,3.7,7.1,8.1,10.1,12.7
			c2.2,3.4,3.9,7,4.7,10.9c0.3,1.7,1,3.4,0.9,5.2c0,1.9,0,3.8,0,5.7c0,1,0.3,2,0.6,3c0.2,5.3,0.1,10.6,0.1,15.9c0,0.7,0,1.5-0.1,2.2
			c-0.6,0.9,0.1,2-0.6,2.9c-0.2,0.3,0,0.8,0,1.2c0,9.6,0,19.2,0,28.8c0,0.5,0,1,0,1.6C143.1,227.1,137.3,227.1,131.6,227.1z"/>
		<path class="st3" d="M98,227.2c-6,0-12,0-17.9,0c-0.1-0.1-0.1-0.1-0.1-0.1c0,0-0.1-0.1-0.1-0.1c0-34.5,0-69,0-103.4
			c0-0.5,0-1,0-1.6c6.1,0,12.1,0,18.2,0C98,156.9,98,192,98,227.2z"/>
		<path class="st3" d="M176.1,227.2c-5.8,0-11.6,0-17.4,0c0-35.1,0-70.2,0-105.4c5.8,0,11.6,0,17.4,0c0,0.7,0,1.2,0,1.7
			c0,3.7,0,7.3,0,11C176.1,165.4,176.1,196.3,176.1,227.2z"/>
		<path class="st2" d="M179.4,193c0-5.4,0-10.5,0-15.6c0.4-0.5,0.9-0.4,1.3-0.4c2.2,0,4.4-0.1,6.6,0c3,0.1,5.8-0.8,8.4-2.2
			c4.6-2.5,7.8-6.3,9.5-11.4c1-3.1,1.2-6.1,0.7-9.4c-0.5-2.9-1.5-5.5-3.1-7.9c-2.7-3.9-6.3-6.6-11-7.9c-1.5-0.4-3-0.7-4.6-0.7
			c-2.6,0-5.1,0-7.7,0c-0.3-1.3-0.4-9.2-0.2-15.8c0.4-0.4,0.9-0.2,1.3-0.2c1.8,0,3.6,0,5.4,0c5.6,0,11,1.1,16,3.6
			c4.7,2.3,8.7,5.5,12.1,9.6c3.2,3.9,5.5,8.3,6.8,13.2c0.5,1.7,0.8,3.5,1,5.2c0.2,1.6,0.3,3.2,0.3,4.8c-0.1,4.4-0.9,8.7-2.6,12.9
			c-1.5,3.8-3.7,7.1-6.3,10.2c-5.2,5.9-11.6,9.6-19.2,11.3c-2.2,0.5-4.4,0.8-6.7,0.7C184.7,193,182.1,193,179.4,193z"/>
		<path class="st4" d="M226.2,121.5c6,0,11.9,0,17.9,0c0,35.1,0,70.1,0,105.2c-0.2,0.2-0.4,0.4-0.7,0.4c-5.7,0-11.5,0-17.1,0
			c-0.4-0.3-0.6-0.5-0.5-0.8c0-0.5,0-0.9,0-1.4c0-33.8,0-67.6,0-101.3C225.8,122.9,225.5,122.1,226.2,121.5z M243.8,226.4
			c0-35,0-69.8,0-104.6c-5.8,0-11.5,0-17.4,0c0,0.4,0,0.7,0,1.1c0,34.4,0,68.8,0,103.2c0,0,0,0.1,0.1,0.1c0,0,0.1,0.1,0.1,0.1
			C232.3,226.4,238,226.4,243.8,226.4z"/>
		<path class="st4" d="M176.1,227.2c0-30.9,0-61.8,0-92.7c0-3.7,0-7.3,0-11c0-0.5,0-1,0-1.7c-5.9,0-11.7,0-17.4,0
			c-0.1,0-0.2,0-0.4,0c0.1-0.5,0.5-0.3,0.8-0.3c5.7,0,11.4,0,17.1,0c0.4,0.6,0.2,1.2,0.2,1.9c0,27.7,0,55.3,0,83
			c0,6.6,0,13.1,0,19.7C176.5,226.4,176.8,227,176.1,227.2z"/>
		<path class="st2" d="M158.4,121.8c0.1,0,0.2,0,0.4,0c0,35.1,0,70.2,0,105.4c-0.2,0-0.4-0.1-0.4-0.3c0-0.5,0-0.9,0-1.4
			c0-34.1,0-68.1,0-102.2C158.3,122.8,158.3,122.3,158.4,121.8z"/>
		<path class="st2" d="M98,227.2c0-35.1,0-70.2,0-105.4c0.2,0,0.4,0.1,0.4,0.2c0,0.4,0,0.8,0,1.2c0,34.1,0,68.2,0,102.3
			c0,0.5,0,0.9,0,1.4C98.4,227.1,98.2,227.1,98,227.2z"/>
		<path class="st4" d="M131.6,227.1c5.7,0,11.5,0,17.4,0c0-0.6,0-1.1,0-1.6c0-9.6,0-19.2,0-28.8c0-0.4-0.2-0.9,0-1.2
			c0.6-0.9-0.1-2,0.6-2.9c0,2.3,0,4.6-0.2,6.9c-0.2,2.7-0.1,5.5-0.1,8.2c0,6.2,0,12.3,0,18.5c0,0.3,0,0.7,0,1
			c-0.4,0.4-0.8,0.2-1.2,0.2c-5.2,0-10.3,0-15.5,0C132.2,227.4,131.7,227.8,131.6,227.1z"/>
		<path class="st4" d="M102.2,121.8c0,6,0,12.1,0,18.1c-0.6-0.1-0.4-0.5-0.4-0.8c0-2.6,0-5.2,0-7.8c0-2.9,0-5.8,0-8.7
			C101.8,122.3,101.6,121.8,102.2,121.8z"/>
		<path class="st4" d="M149.6,174.4c-0.3-1-0.6-2-0.6-3c0-1.9,0-3.8,0-5.7c0.1,0.1,0.3,0.1,0.3,0.2
			C149.2,168.8,149.8,171.6,149.6,174.4z"/>
		<path class="st5" d="M437.4,181.4c-3-4.6-6.3-8.8-10.7-12.2c0.5-10.8-3-20.2-9.8-28.5c1.7-0.9,10-0.4,16.1,1.5
			c3.5,6.2,5.4,12.9,6.2,20C439.9,168.7,439.3,175.1,437.4,181.4z"/>
		<path class="st5" d="M354.3,194.5c-4.1,0.8-6.2,0.6-15.8-1.4c-0.5-0.4-0.8-0.9-1.1-1.5c-2-4.2-3.5-8.6-4.5-13.2
			c-1.1-5.2-1.2-10.3-0.9-15.5c0.2-2.9,0.8-5.7,1.4-8.5c0.1-0.3,0.3-0.6,0.5-1c2.8,4.8,6.3,9,10.7,12.5c-0.3,5.2,0.5,10.3,2.2,15.2
			C348.3,186.2,350.8,190.6,354.3,194.5z"/>
		<path class="st5" d="M371.3,219.6c4.8-3,9.1-6.3,12.5-10.7c10.8,0.2,20.4-3,28.8-10.2c0.4,5.7-0.1,11.1-1.7,16.4
			C398.4,221.7,385.3,223.2,371.3,219.6z"/>
		<path class="st5" d="M358.4,136.4c-0.4-5.8,0.2-11.1,1.8-16.4c12.5-6.5,25.6-7.9,39.6-4.4c-4.9,3-9.2,6.4-12.6,10.7
			C376.4,125.9,366.9,129.3,358.4,136.4z"/>
		<path class="st5" d="M402.6,115.3c2.9-1.8,10.7-4.8,13.2-5.1c14.8,8.1,25.2,20.1,31.1,36.4c-1.7-0.8-3.1-1.5-4.4-2.1
			c-1.5-0.7-2.9-1.3-4.4-1.9c-1.4-0.6-2.9-1-4.3-1.5C427.2,129.6,417.1,120.3,402.6,115.3z"/>
		<path class="st5" d="M359.3,119.3c-12.6,7.1-21.2,17.4-25.9,31c-1.4-1.4-4.3-8.6-5.2-12.9c8-14.9,20.1-25.2,36.5-31.3
			C362.4,110.7,360.6,114.9,359.3,119.3z"/>
		<path class="st5" d="M411.8,215.9c12.6-7.2,21.2-17.5,25.9-31.1c1.7,2.1,4.8,10.2,5.1,13.1c-8.1,14.8-20.1,25.2-36.5,31.1
			C408.6,224.6,410.5,220.4,411.8,215.9z"/>
		<path class="st5" d="M368.6,219.9c-4.3,2.3-8.6,3.8-13.1,5.2c-14.9-8.2-25.3-20.1-31.2-36.4c1.7,0.5,2.9,1.4,4.2,1.9
			c1.4,0.6,2.9,1.2,4.3,1.8c1.4,0.5,2.8,1,4.5,1.6c3.3,5.9,7.7,11.3,13.1,15.9C355.8,214.3,361.9,217.5,368.6,219.9z"/>
		<path class="st5" d="M356.6,195.5c6.6-1.1,12.4-3.8,17.5-8.2c2.5,1.4,5.1,2.5,7.9,2.8c2.7,0.4,5.5,0.4,8.3-0.2
			c-0.6,6.7-2.8,12.7-6.9,17.9C375,207.7,363.7,203.5,356.6,195.5z"/>
		<path class="st5" d="M387.7,127.3c10.5,0.7,19.4,4.8,27,12.4c-3.4,0.6-6.5,1.5-9.4,2.9c-3,1.4-5.7,3.2-8.2,5.3
			c-2.5-1.4-5.1-2.3-7.8-2.8c-2.8-0.5-5.5-0.2-8.4,0.2C381.3,138.5,383.6,132.7,387.7,127.3z"/>
		<path class="st5" d="M407.8,162.8c6.8,0.6,12.6,2.8,17.9,6.9c-0.6,10.5-4.7,19.3-12.1,26.7c-0.8-0.7-0.6-1.7-0.8-2.6
			c-1.3-5.1-3.5-9.7-6.8-13.8c-0.3-0.3-0.5-0.7-0.8-1.1C408.1,174,408.8,168.7,407.8,162.8z"/>
		<path class="st5" d="M365.9,156.1c-1.3,2.4-2.3,5-2.8,7.7c-0.5,2.8-0.3,5.5,0.1,8.3c-3.2,0.5-12.2-2-17.7-6.5
			c-0.4-8.1,4.7-20.5,12.2-26.9c0.6,3.3,1.5,6.4,2.9,9.3C362,151,363.7,153.7,365.9,156.1z"/>
		<path class="st5" d="M448.7,149c2.7,1.7,5.2,3.3,7.5,5.2c3.4,16.7,0.4,36.5-10.2,52.5c-0.6-1.5-0.6-3.1-0.9-4.5
			c-0.4-1.5-0.7-3-1-4.4C451.8,182.1,453.2,165.9,448.7,149z"/>
		<path class="st5" d="M355.3,226.1c15.7,7.8,31.8,9.4,48.6,4.8c0.3,0.4-0.1,0.6-0.3,0.9c-1.3,2-2.6,3.9-4,5.9
			c-0.4,0.6-1.1,1-1.9,1.1c-4.9,0.8-9.9,1.2-14.8,1c-5.9-0.2-11.8-1.2-17.5-2.8c-3.9-1.1-7.7-2.6-11.4-4.4c-2.4-1.2-4.8-2.5-7.1-4
			c-0.2-0.1-0.4-0.3-0.7-0.5C349.5,227.4,352.4,227,355.3,226.1z"/>
		<path class="st5" d="M325.1,128.7c0.6,2.9,1.2,5.8,2,8.6c-7.8,15.5-9.3,31.7-4.7,48.7c-2.8-1.5-5.2-3.3-7.6-5.1
			c-2-10.7-1.6-21.3,1.1-31.7C317.8,141.9,320.8,135,325.1,128.7z"/>
		<path class="st5" d="M424.5,107.2c-3,0.5-5.9,1.2-8.9,1.9c-7.4-3.7-15.3-6.1-23.8-6.9c-8.4-0.8-16.6-0.1-25,2.3
			c1.7-2.9,3.4-5.4,5.3-7.8C391,93.5,408.5,96.8,424.5,107.2z"/>
		<path class="st5" d="M364.7,173.5c7.1,0.1,13.9-0.6,20.2-4.7c-1.4,7.3-5.8,12.3-10.6,17.2C370.3,184.3,365.9,178.5,364.7,173.5z"
			/>
		<path class="st5" d="M379.6,146.9c0.1,6.9,0.7,13.7,4.7,19.7c-4.6,0.1-12.7-5.5-16.9-10.4C368.3,152.8,375.5,147.2,379.6,146.9z"
			/>
		<path class="st5" d="M387.1,168.5c7,1.3,12.1,5.7,16.9,10.5c-2.2,4.3-8.5,8.9-12.4,9.3C391.5,181.4,390.8,174.6,387.1,168.5z"/>
		<path class="st5" d="M386.2,166.5c1.5-7.3,5.8-12.4,10.8-17.3c4.7,3.1,7.8,7.2,9.4,12.5C399.4,161.7,392.5,162.3,386.2,166.5z"/>
		<path class="st3" d="M243.8,226.4c-5.8,0-11.5,0-17.2,0c0,0-0.1-0.1-0.1-0.1c0,0-0.1-0.1-0.1-0.1c0-34.4,0-68.8,0-103.2
			c0-0.3,0-0.7,0-1.1c5.8,0,11.6,0,17.4,0C243.8,156.7,243.8,191.5,243.8,226.4z"/>
	</g>
</g>
</svg>
